HIERARCHY
ROOT Hips
{
	OFFSET 4.076200 -17.275196 43.303001
	CHANNELS 6 Xposition Yposition Zposition Zrotation Xrotation Yrotation
	JOINT Chest
	{
		OFFSET -0.689800 0.941999 5.341000
		CHANNELS 6 Xposition Yposition Zposition Zrotation Xrotation Yrotation
		JOINT Chest2
		{
			OFFSET 0.000000 0.000000 4.278900
			CHANNELS 6 Xposition Yposition Zposition Zrotation Xrotation Yrotation
			JOINT Neck
			{
				OFFSET 0.000000 0.000000 9.970299
				CHANNELS 6 Xposition Yposition Zposition Zrotation Xrotation Yrotation
				JOINT Head
				{
					OFFSET 0.000000 0.000002 2.173901
					CHANNELS 6 Xposition Yposition Zposition Zrotation Xrotation Yrotation
					End Site
					{
						OFFSET 0.000000 0.000000 6.488197
					}
				}
			}
			JOINT LeftCollar
			{
				OFFSET 2.472300 -0.285801 5.433899
				CHANNELS 6 Xposition Yposition Zposition Zrotation Xrotation Yrotation
				JOINT LeftShoulder
				{
					OFFSET 5.327700 0.000000 0.000000
					CHANNELS 6 Xposition Yposition Zposition Zrotation Xrotation Yrotation
					JOINT LeftElbow
					{
						OFFSET 0.000000 0.000000 -10.713001
						CHANNELS 6 Xposition Yposition Zposition Zrotation Xrotation Yrotation
						JOINT LeftWrist
						{
							OFFSET 0.000000 -0.000002 -13.396900
							CHANNELS 6 Xposition Yposition Zposition Zrotation Xrotation Yrotation
							End Site
							{
								OFFSET 0.000000 0.000000 -2.173901
							}
						}
					}
				}
			}
			JOINT RightCollar
			{
				OFFSET -2.589400 -1.358400 6.105000
				CHANNELS 6 Xposition Yposition Zposition Zrotation Xrotation Yrotation
				JOINT RightShoulder
				{
					OFFSET -4.580200 0.000000 0.000000
					CHANNELS 6 Xposition Yposition Zposition Zrotation Xrotation Yrotation
					JOINT RightElbow
					{
						OFFSET 0.000000 0.000000 -10.761101
						CHANNELS 6 Xposition Yposition Zposition Zrotation Xrotation Yrotation
						JOINT RightWrist
						{
							OFFSET 0.000000 -0.000002 -13.028500
							CHANNELS 6 Xposition Yposition Zposition Zrotation Xrotation Yrotation
							End Site
							{
								OFFSET 0.000000 0.000000 -2.173901
							}
						}
					}
				}
			}
		}
	}
	JOINT LeftHip
	{
		OFFSET 2.532500 0.486900 -2.489700
		CHANNELS 6 Xposition Yposition Zposition Zrotation Xrotation Yrotation
		JOINT LeftKnee
		{
			OFFSET 0.000000 -0.000002 -18.199398
			CHANNELS 6 Xposition Yposition Zposition Zrotation Xrotation Yrotation
			JOINT LeftAnkle
			{
				OFFSET 0.000000 -0.000002 -16.083900
				CHANNELS 6 Xposition Yposition Zposition Zrotation Xrotation Yrotation
				End Site
				{
					OFFSET 0.000000 -8.641399 0.000000
				}
			}
		}
	}
	JOINT RightHip
	{
		OFFSET -2.112700 -0.049900 -2.711102
		CHANNELS 6 Xposition Yposition Zposition Zrotation Xrotation Yrotation
		JOINT RightKnee
		{
			OFFSET 0.000000 -0.000002 -19.127298
			CHANNELS 6 Xposition Yposition Zposition Zrotation Xrotation Yrotation
			JOINT RightAnkle
			{
				OFFSET 0.000000 -0.000002 -14.874901
				CHANNELS 6 Xposition Yposition Zposition Zrotation Xrotation Yrotation
				End Site
				{
					OFFSET 0.000000 -8.198299 0.000000
				}
			}
		}
	}
}
MOTION
Frames: 8
Frame Time: 0.041667
2.211201 -67.606293 46.170704 -105.242997 -1.528602 0.169832 -0.689803 0.942005 5.340992 9.039831 1.250036 -1.012929 0.000007 -0.000001 4.278903 -4.085342 -0.164042 -0.155481 -0.000006 0.000001 9.970293 4.892908 7.800153 0.512813 0.000013 -0.000000 2.173889 -0.043050 0.095310 0.390271 2.472298 -0.285800 5.433889 -5.150209 0.362726 -8.727007 5.327702 0.000003 -0.000003 -28.059587 -41.320059 -43.607070 0.000009 0.000000 -10.712999 33.108010 -40.777981 75.629940 -0.000004 -0.000008 -13.396904 -71.814842 -0.013101 -92.978580 -2.589399 -1.358397 6.104994 20.797982 0.002696 7.527790 -4.580196 0.000006 -0.000002 33.572442 -31.908339 46.220662 -0.000000 -0.000000 -10.761103 -56.004297 -48.569503 -83.828346 0.000005 0.000000 -13.028509 -103.408716 2.605279 -145.925147 2.532496 0.486902 -2.489707 23.097080 -24.102208 5.545010 0.000000 -0.000005 -18.199396 28.302793 21.429384 -3.521677 0.000002 0.000002 -16.083899 -72.976705 70.181409 33.054082 -2.112704 -0.049896 -2.711106 -0.223188 -1.639158 1.825687 -0.000004 0.000001 -19.127300 688.853319 31.000787 -721.523863 -0.000004 0.000003 -14.874896 42.185980 66.799701 -13.283958
1.974099 -67.566093 46.068199 -105.271636 -1.355854 0.436620 -0.689795 0.941999 5.341004 9.040308 0.911896 -1.255876 0.000010 0.000001 4.278903 -4.003386 -0.180916 -0.156512 0.000000 0.000002 9.970292 4.805145 7.845862 0.458467 0.000010 -0.000001 2.173900 -0.058256 0.063585 0.409365 2.472301 -0.285801 5.433902 -5.192564 0.501047 -8.780250 5.327703 0.000001 -0.000000 -28.167077 -41.371412 -43.704748 -0.000006 0.000000 -10.712998 33.417271 -40.866361 75.903974 0.000005 -0.000007 -13.396884 -71.913737 -0.098926 -92.904213 -2.589401 -1.358399 6.104996 20.209796 0.135859 7.669663 -4.580203 0.000001 0.000004 34.084433 -32.180556 46.230702 0.000009 0.000009 -10.761105 -56.326306 -48.318387 -84.162452 0.000002 -0.000005 -13.028505 -103.154127 2.471517 -146.027914 2.532504 0.486897 -2.489704 22.558045 -23.710034 5.619881 0.000007 -0.000000 -18.199402 28.465554 21.395190 -3.813146 -0.000002 -0.000007 -16.083900 -68.041812 69.191913 30.412677 -2.112699 -0.049900 -2.711105 -1.380368 -2.747710 1.645500 -0.000008 -0.000003 -19.127296 690.169961 33.372103 -720.533485 -0.000001 0.000010 -14.874899 40.979844 66.056918 -12.279177
1.728499 -67.522095 45.943100 -105.478693 -0.795214 0.551069 -0.689801 0.942002 5.341002 9.356698 0.118426 -1.102104 -0.000004 0.000002 4.278896 -3.982608 -0.080226 -0.143519 0.000001 -0.000002 9.970297 4.708449 7.876149 0.118107 -0.000006 0.000001 2.173901 -0.036758 -0.050452 0.390368 2.472298 -0.285801 5.433897 -5.196287 0.642970 -9.137793 5.327701 0.000002 -0.000002 -28.266775 -41.605578 -43.648327 0.000001 -0.000008 -10.713000 33.694846 -40.583020 76.156561 0.000003 -0.000006 -13.396893 -72.385983 -0.034579 -92.781768 -2.589395 -1.358399 6.105001 19.396284 0.188843 7.731719 -4.580197 0.000005 0.000001 34.579919 -32.466983 46.106669 0.000002 -0.000003 -10.761101 -56.508477 -48.567255 -84.314587 -0.000000 -0.000002 -13.028495 -103.354436 2.545541 -146.175392 2.532502 0.486902 -2.489703 22.241710 -23.683845 5.996755 0.000002 -0.000001 -18.199396 28.784726 21.448058 -4.204712 -0.000007 -0.000007 -16.083895 -63.707838 68.128227 28.237640 -2.112710 -0.049898 -2.711104 -2.125285 -4.263967 1.540696 -0.000005 -0.000001 -19.127306 691.265305 35.749470 -719.594143 -0.000003 0.000004 -14.874897 39.512426 65.474070 -11.222511
1.477198 -67.471802 45.792999 -105.698823 -0.052908 0.607656 -0.689801 0.941998 5.341002 9.709030 -0.858945 -0.839295 0.000001 -0.000001 4.278897 -3.746600 0.011132 0.007543 -0.000004 -0.000001 9.970300 3.793554 7.884262 0.072937 -0.000001 -0.000003 2.173899 0.448496 -0.057461 0.094653 2.472299 -0.285802 5.433904 -5.388373 0.823509 -9.620774 5.327702 -0.000000 0.000002 -28.378575 -41.917465 -43.574722 -0.000010 0.000002 -10.713002 33.849967 -40.482661 76.356297 0.000002 -0.000002 -13.396896 -72.657729 0.071491 -92.832858 -2.589408 -1.358399 6.105005 18.273906 0.219207 7.699942 -4.580201 0.000002 0.000011 35.149007 -32.762095 45.926708 0.000003 0.000001 -10.761102 -56.943933 -48.842389 -84.783835 0.000000 -0.000004 -13.028495 -103.665551 2.393244 -145.996250 2.532489 0.486897 -2.489703 21.863490 -23.890854 6.499462 -0.000005 0.000000 -18.199402 28.966979 21.664834 -4.606181 0.000000 -0.000004 -16.083899 -59.388966 66.819911 25.895668 -2.112704 -0.049902 -2.711104 -3.165429 -6.082226 1.432037 -0.000002 0.000000 -19.127302 692.417585 38.327415 -718.520601 -0.000007 0.000007 -14.874901 38.246624 64.844867 -10.459366
1.217998 -67.417603 45.616695 -105.743227 -0.049052 0.568314 -0.689805 0.942002 5.340995 9.934403 -1.091130 -0.598732 0.000013 -0.000001 4.278901 -3.935066 0.059899 -0.031464 -0.000016 -0.000004 9.970298 3.727636 7.971912 -0.138389 0.000000 0.000003 2.173901 0.481276 -0.105246 0.149789 2.472286 -0.285801 5.433899 -5.258987 1.032186 -9.785166 5.327708 -0.000000 0.000000 -28.530796 -42.174024 -43.651753 0.000003 -0.000002 -10.713003 33.979501 -40.532644 76.553068 -0.000000 -0.000007 -13.396888 -72.674784 0.108847 -92.817578 -2.589410 -1.358401 6.105002 17.615673 0.360060 7.725708 -4.580202 0.000002 -0.000004 35.447374 -33.307523 45.801022 -0.000002 -0.000001 -10.761099 -56.854788 -48.964216 -85.027652 0.000002 -0.000000 -13.028501 -103.776419 2.365130 -146.323074 2.532500 0.486900 -2.489710 21.535185 -23.533529 6.897456 0.000000 0.000000 -18.199398 28.490339 22.419794 -4.393181 0.000004 -0.000000 -16.083900 -51.865263 67.007550 17.906751 -2.112702 -0.049896 -2.711108 -4.534773 -7.267446 1.415032 0.000006 0.000005 -19.127295 693.883617 41.198707 -717.534540 -0.000007 0.000004 -14.874899 35.884192 64.287837 -7.789891
0.952100 -67.361008 45.421005 -105.893033 -0.052101 0.602884 -0.689808 0.941994 5.341004 10.103063 -1.176452 -0.591881 0.000006 -0.000001 4.278903 -3.907907 -0.001547 -0.087409 0.000002 0.000001 9.970295 3.638060 8.034093 -0.230437 -0.000002 0.000000 2.173898 0.449269 -0.154037 0.174513 2.472299 -0.285800 5.433902 -5.387380 1.178304 -9.518400 5.327709 -0.000000 0.000000 -28.633386 -42.337501 -44.015303 -0.000011 0.000002 -10.713000 33.985573 -40.790757 76.625071 0.000000 -0.000006 -13.396894 -72.417525 0.013055 -92.850643 -2.589403 -1.358401 6.105002 17.495905 0.510664 7.550914 -4.580210 0.000005 -0.000006 35.612231 -33.370972 46.159955 0.000002 -0.000005 -10.761101 -57.242429 -48.871561 -85.289276 -0.000002 0.000002 -13.028490 -103.788925 2.368108 -146.235621 2.532497 0.486897 -2.489700 21.191382 -23.348303 7.148961 -0.000000 0.000001 -18.199400 27.857879 23.424573 -4.060160 0.000006 -0.000001 -16.083900 -44.006680 66.965968 9.268954 -2.112702 -0.049904 -2.711098 -5.750935 -8.457259 1.242152 -0.000001 0.000004 -19.127295 695.542533 44.139913 -716.718251 -0.000005 0.000003 -14.874899 33.633989 63.641442 -6.052584
0.679599 -67.299393 45.203205 -106.040633 -0.048988 0.563717 -0.689792 0.942002 5.340999 10.194766 -1.230352 -0.521237 -0.000013 -0.000000 4.278902 -3.936756 -0.021078 -0.124842 0.000005 -0.000002 9.970300 3.638336 8.010068 -0.282130 0.000005 0.000001 2.173890 0.416607 -0.219665 0.184601 2.472296 -0.285805 5.433902 -5.276636 1.259891 -9.283509 5.327701 0.000000 0.000002 -28.858512 -42.483435 -44.336892 0.000011 0.000003 -10.713000 34.031493 -41.001858 76.573271 0.000008 -0.000002 -13.396893 -72.387048 -0.036508 -92.706711 -2.589398 -1.358403 6.105005 17.545231 0.590205 7.489971 -4.580203 0.000002 -0.000009 35.636338 -33.491836 46.395453 0.000006 0.000002 -10.761103 -57.385576 -48.971012 -85.487904 0.000003 0.000007 -13.028500 -104.086236 2.375526 -146.063008 2.532505 0.486897 -2.489704 20.963358 -23.262706 7.495588 -0.000002 -0.000003 -18.199400 26.639140 24.763518 -3.790789 0.000004 0.000000 -16.083897 -36.792965 65.609049 3.507715 -2.112693 -0.049900 -2.711103 -6.875082 -9.649529 1.184260 -0.000002 0.000007 -19.127306 696.338769 46.940694 -715.569030 -0.000002 -0.000004 -14.874899 32.629818 63.212267 -5.260931
0.400198 -67.231598 44.976402 -106.036959 -0.037303 0.427643 -0.689813 0.941997 5.340994 10.183780 -1.267873 -0.333481 -0.000001 -0.000001 4.278900 -3.995574 -0.049065 -0.183064 -0.000012 -0.000005 9.970298 3.596568 8.030230 -0.188368 0.000012 0.000002 2.173894 0.475801 -0.283627 0.142559 2.472286 -0.285804 5.433897 -5.183886 1.344589 -9.063036 5.327705 -0.000001 0.000000 -28.870171 -42.761806 -44.459590 0.000007 -0.000006 -10.713004 33.714473 -41.418329 76.389642 0.000001 0.000000 -13.396881 -72.067334 -0.014448 -92.826410 -2.589411 -1.358401 6.105000 17.503325 0.669457 7.548034 -4.580201 0.000000 -0.000004 35.759469 -33.766044 46.507632 -0.000003 0.000008 -10.761099 -57.283854 -48.680777 -85.407206 0.000003 -0.000001 -13.028504 -104.030359 2.358411 -145.929737 2.532487 0.486897 -2.489707 21.008612 -23.264651 8.048328 0.000005 0.000000 -18.199404 24.871719 26.502905 -3.438895 0.000004 -0.000005 -16.083897 -28.974882 63.620705 -2.837007 -2.112709 -0.049901 -2.711107 -8.126828 -10.741193 1.161840 0.000002 0.000001 -19.127302 697.666886 49.740484 -714.692198 -0.000002 -0.000005 -14.874903 31.390306 62.530081 -4.561553
